<?xml version="1.0" standalone="no"?><!DOCTYPE svg PUBLIC "-//W3C//DTD SVG 1.1//EN" "http://www.w3.org/Graphics/SVG/1.1/DTD/svg11.dtd"><svg t="1593046675714" class="icon" viewBox="0 0 1024 1024" version="1.1" xmlns="http://www.w3.org/2000/svg" p-id="3380" xmlns:xlink="http://www.w3.org/1999/xlink" width="200" height="200"><defs><style type="text/css"></style></defs><path d="M513.607 32l-387.014 125.336 1.96 488.077 0.441 5.283c0.702 3.213 15.589 80.749 90.057 155.441 57.256 57.587 197.664 132.795 257.58 164.898 9.418 5.060 16.436 8.791 20.468 11.080l14.219 7.868 17.468-9.047c35.022-17.511 213.144-108.233 279.337-174.688 74.543-74.767 89.432-152.302 90.062-155.515l2.437-493.362-387.014-125.373zM839.152 642.052c-2.803 11.379-18.838 67.562-73.137 122.087-55.187 55.48-209.742 136.080-253.664 158.43-2.327-1.217-4.838-2.512-7.495-3.953-52.68-28.22-192.53-103.135-243.579-154.477-54.448-54.598-70.371-110.707-73.179-122.087l-1.772-441.425 327.283-106.053 327.286 106.053-1.741 441.425z" p-id="3381"></path><path d="M337.533 719.245v0h53.171v-21.068h270.367v21.068h52.67v-146.47h-376.208v146.47zM390.703 609.894h270.368v52.67h-270.368v-52.67z" p-id="3382"></path><path d="M520.117 278.83l11.537 23.075h-119.382l23.576-46.65-55.177-6.020c-21.736 53.171-54.341 101.493-97.814 144.966l9.532 31.602 6.020 23.075c7.691-7.691 15.049-15.383 22.071-23.075 7.022-7.691 13.376-14.882 19.060-21.569v150.484h51.165v-15.55h354.639v-37.119h-166.535v-33.607h144.966v-31.101h-144.966v-33.106h144.966v-33.608h-144.966v-33.106h158.507v-35.614h-146.973c-3.679-8.695-8.026-17.808-13.043-27.337-5.017-9.532-10.367-18.644-16.052-27.338l-53.171 8.026 12.039 23.575zM527.643 502.047h-136.94v-33.608h136.94v33.608zM527.643 437.338h-136.94v-33.106h136.94v33.106zM527.643 370.624h-136.94v-33.106h136.94v33.106z" p-id="3383"></path></svg>