<?xml version="1.0" standalone="no"?><!DOCTYPE svg PUBLIC "-//W3C//DTD SVG 1.1//EN" "http://www.w3.org/Graphics/SVG/1.1/DTD/svg11.dtd"><svg t="1593571426208" class="icon" viewBox="0 0 1024 1024" version="1.1" xmlns="http://www.w3.org/2000/svg" p-id="3882" xmlns:xlink="http://www.w3.org/1999/xlink" width="16" height="16"><defs><style type="text/css"></style></defs><path d="M858.157176 336.158118a38.174118 38.174118 0 0 0-38.144-38.174118H206.471529a38.189176 38.189176 0 0 0-38.174117 38.174118L117.714824 934.942118c0 21.082353 17.106824 38.174118 38.174117 38.174117h714.736941a38.189176 38.189176 0 0 0 38.174118-38.174117l-50.642824-598.784z m-18.236235 602.729411H186.578824a28.280471 28.280471 0 0 1-28.280471-28.295529l38.4-550.068706c0-15.631059 12.664471-28.280471 28.280471-28.28047h578.379294c15.616 0 28.265412 12.664471 28.265411 28.28047l36.623059 550.068706a28.340706 28.340706 0 0 1-28.325647 28.295529z" p-id="3883"></path><path d="M528.459294 45.176471h-30.358588C394.390588 45.176471 310.377412 129.234824 310.377412 232.899765V419.990588h34.575059V249.735529c0-92.867765 75.294118-168.161882 168.161882-168.161882s168.161882 75.294118 168.161882 168.161882v170.270118h34.891294V232.899765C716.167529 129.219765 632.109176 45.176471 528.459294 45.176471z" p-id="3884"></path></svg>