<?xml version="1.0" standalone="no"?><!DOCTYPE svg PUBLIC "-//W3C//DTD SVG 1.1//EN" "http://www.w3.org/Graphics/SVG/1.1/DTD/svg11.dtd"><svg t="1593571438677" class="icon" viewBox="0 0 1024 1024" version="1.1" xmlns="http://www.w3.org/2000/svg" p-id="4643" xmlns:xlink="http://www.w3.org/1999/xlink" width="16" height="16"><defs><style type="text/css"></style></defs><path d="M512.009906 1024L212.861416 724.011747a424.727079 424.727079 0 0 1 0-599.760891 423.535524 423.535524 0 0 1 689.967307 462.334837 420.56231 420.56231 0 0 1-91.693023 137.482795z m0-982.261517c-101.849615 0-197.593927 39.775254-269.609265 112.006206-70.982656 71.005353-111.67711 169.552657-111.67711 270.380939s40.705802 199.398282 111.665762 270.392286l269.620613 270.392287 269.609265-270.324198c70.948612-71.016701 111.699806-169.575353 111.699806-270.460375s-40.751194-199.375586-111.67711-270.369591c-72.06073-72.242301-167.782346-112.062947-269.631961-112.062947z m0 527.359716c-78.029855 0-141.511387-63.946806-141.511387-142.555416S433.980051 283.976018 512.009906 283.976018s141.511387 63.958154 141.511387 142.566765-63.481532 142.555416-141.511387 142.555416z m0-243.395046c-55.027162 0-99.7956 45.233712-99.7956 100.83963s44.768438 100.850978 99.7956 100.850978 99.784252-45.233712 99.784252-100.828282S567.037068 325.691805 512.009906 325.691805z" p-id="4644"></path></svg>