<?xml version="1.0" standalone="no"?><!DOCTYPE svg PUBLIC "-//W3C//DTD SVG 1.1//EN" "http://www.w3.org/Graphics/SVG/1.1/DTD/svg11.dtd"><svg t="1592392698778" class="icon" viewBox="0 0 1024 1024" version="1.1" xmlns="http://www.w3.org/2000/svg" p-id="3524" xmlns:xlink="http://www.w3.org/1999/xlink" width="200" height="200"><defs><style type="text/css"></style></defs><path d="M548.352 254.976H475.648l12.288 343.04h48.64l11.776-343.04zM462.848 719.872c0 27.136 22.016 49.152 49.152 49.152s49.152-22.016 49.152-49.152-22.016-49.152-49.152-49.152-49.152 22.016-49.152 49.152z" p-id="3525"></path><path d="M512 148.992c200.192 0 363.008 162.304 363.008 363.008s-162.304 363.008-363.008 363.008-363.008-162.816-363.008-363.008S311.808 148.992 512 148.992m0-51.712c-228.864 0-414.72 185.856-414.72 414.72s185.856 414.72 414.72 414.72 414.72-185.856 414.72-414.72-185.856-414.72-414.72-414.72z" p-id="3526"></path></svg>