<?xml version="1.0" standalone="no"?><!DOCTYPE svg PUBLIC "-//W3C//DTD SVG 1.1//EN" "http://www.w3.org/Graphics/SVG/1.1/DTD/svg11.dtd"><svg t="1592529369575" class="icon" viewBox="0 0 1024 1024" version="1.1" xmlns="http://www.w3.org/2000/svg" p-id="2097" xmlns:xlink="http://www.w3.org/1999/xlink" width="200" height="200"><defs><style type="text/css"></style></defs><path d="M1025.473 953.55l-329.577-306.177c51.347-66.017 83.11-147.953 83.11-238.033 0-215.584-174.727-390.241-390.311-390.241-215.438 0-390.165 174.654-390.165 390.241 0 215.515 174.727 390.095 390.165 390.095 95.727 0 182.284-35.795 250.208-93.012l324.956 298.476 61.617-51.348zM39.605 409.342c0-192.847 156.389-349.235 349.162-349.235 192.919 0 349.235 156.389 349.235 349.235 0 192.771-156.316 349.091-349.235 349.091-192.773 0-349.162-156.316-349.162-349.091z" p-id="2098"></path></svg>