<?xml version="1.0" standalone="no"?><!DOCTYPE svg PUBLIC "-//W3C//DTD SVG 1.1//EN" "http://www.w3.org/Graphics/SVG/1.1/DTD/svg11.dtd"><svg t="1594606055570" class="icon" viewBox="0 0 1024 1024" version="1.1" xmlns="http://www.w3.org/2000/svg" p-id="2071" xmlns:xlink="http://www.w3.org/1999/xlink" width="16" height="16"><defs><style type="text/css"></style></defs><path d="M991.906909 303.104c-0.209455 2.397091-14.917818 149.387636-128.837818 331.613091a11.333818 11.333818 0 0 0-4.864-6.027636c-29.835636-17.477818-73.029818-58.903273-118.667636-107.985455l176.872727-400.546909c9.541818-4.282182 16.570182-7.610182 20.945454-9.774546a242.850909 242.850909 0 0 1 57.437091 156.951273c0 10.752-0.884364 21.899636-2.885818 35.770182z m-451.374545 668.16l136.843636-309.853091h168.424727c-66.955636 100.305455-164.235636 209.291636-305.268363 309.853091zM172.823273 661.410909h164.026182L491.054545 979.642182c-149.992727-104.634182-251.066182-218.461091-318.231272-318.231273zM25.762909 302.242909a242.501818 242.501818 0 0 1 48.686546-183.877818 11.822545 11.822545 0 0 0 0.86109 3.374545l194.56 401.477819c-62.208 55.598545-110.894545 89.483636-122.996363 97.652363a1013.108364 1013.108364 0 0 1-46.149818-84.200727c-65.093818-134.237091-74.798545-232.843636-74.961455-234.426182zM267.357091 23.272727c103.470545 0 195.630545 65.489455 230.004364 163.141818-196.701091-3.490909-366.010182-73.565091-403.665455-90.321454A243.2 243.2 0 0 1 267.357091 23.272727z m253.323636 235.915637V209.826909c154.717091-1.605818 290.862545-46.498909 364.427637-76.334545l-162.746182 368.477091c-90.647273-99.863273-185.483636-221.789091-201.681455-242.781091z m-23.272727 0.465454c-65.163636 102.144-143.266909 185.856-209.617455 247.156364L102.935273 125.300364c60.788364 25.088 216.599273 81.314909 394.472727 84.386909v49.966545zM325.562182 638.138182H162.839273c15.429818-10.565818 60.299636-42.496 117.550545-93.207273l45.172364 93.207273z m188.462545 335.546182L362.705455 661.410909h289.233454l-137.914182 312.273455z m215.272728-429.824c37.259636 39.563636 72.820364 73.728 101.189818 94.277818h-142.824728l41.63491-94.277818z m-67.072 94.277818H351.441455l-53.061819-109.521455c66.257455-60.672 144.756364-143.848727 211.362909-245.527272 29.393455 37.864727 117.806545 150.109091 202.309819 242.199272l-49.826909 112.849455zM750.731636 23.272727c62.440727 0 119.296 23.761455 162.513455 62.487273a11.52 11.52 0 0 0-10.077091 6.795636l-4.421818 10.030546c-63.208727 27.601455-209.408 82.176-378.065455 83.968A243.991273 243.991273 0 0 1 750.731636 23.272727z m0-23.272727a267.240727 267.240727 0 0 0-241.687272 153.483636A267.264 267.264 0 0 0 267.357091 0C119.924364 0 0 119.924364 0 267.333818c0 13.009455 0.884364 25.530182 2.653091 37.632 0.349091 4.026182 41.937455 406.109091 500.689454 711.493818a11.636364 11.636364 0 0 0 12.893091 0c458.775273-305.408 498.501818-707.328 498.781091-710.679272 2.071273-14.336 3.048727-26.554182 3.048728-38.446546C1018.065455 119.924364 898.141091 0 750.731636 0z" p-id="2072" fill="#bfbfbf"></path></svg>