<?xml version="1.0" standalone="no"?><!DOCTYPE svg PUBLIC "-//W3C//DTD SVG 1.1//EN" "http://www.w3.org/Graphics/SVG/1.1/DTD/svg11.dtd"><svg t="1594606151883" class="icon" viewBox="0 0 1024 1024" version="1.1" xmlns="http://www.w3.org/2000/svg" p-id="4037" xmlns:xlink="http://www.w3.org/1999/xlink" width="16" height="16"><defs><style type="text/css"></style></defs><path d="M744.471273 494.778182l-61.486546-61.486546V346.298182l172.730182-172.730182a480.744727 480.744727 0 0 1 133.236364 321.210182H744.471273z m-61.486546 171.729454v-86.970181l61.486546-61.486546h244.48a480.744727 480.744727 0 0 1-133.236364 321.210182l-172.730182-172.753455z m-164.933818 77.963637l61.509818-61.509818h86.970182l172.730182 172.753454a480.861091 480.861091 0 0 1-321.210182 133.236364V744.471273z m-171.729454-61.509818h86.946909l61.509818 61.509818v244.48a480.861091 480.861091 0 0 1-321.210182-133.236364l172.753455-172.753454z m-77.963637-164.910546l61.509818 61.509818v86.946909l-172.753454 172.753455A480.861091 480.861091 0 0 1 23.877818 518.050909h244.48z m61.509818-171.752727v86.970182l-61.509818 61.509818H23.877818A480.861091 480.861091 0 0 1 157.114182 173.568l172.753454 172.730182z m164.910546-77.940364l-61.486546 61.486546h-86.970181L173.568 157.114182A480.884364 480.884364 0 0 1 494.778182 23.854545v244.503273z m171.752727 61.486546h-86.993454l-61.486546-61.486546V23.854545a480.884364 480.884364 0 0 1 321.210182 133.259637l-172.730182 172.730182z m-63.720727 23.272727h56.901818v56.901818l-56.901818-56.901818z m-96.395637-63.488l40.215273 40.215273h-80.430545l40.215272-40.215273z m-153.274181 120.366545v-56.878545h56.878545l-56.878545 56.878545z m-23.272728 136.657455l-40.238545-40.238546 40.238545-40.238545v80.477091z m23.272728 56.180364l56.855272 56.855272h-56.855272v-56.855272z m153.274181 120.366545l-40.238545-40.238545h80.477091l-40.238546 40.238545z m153.297455-120.389818v56.878545h-56.878545l56.878545-56.878545z m23.272727-136.610909l40.215273 40.215272-40.215273 40.215273v-80.430545z m-23.272727 103.703272l-89.786182 89.786182h-127.022545l-89.762909-89.762909v-127.022545l89.786181-89.786182h126.976l89.809455 89.809454v126.976zM506.414545 0C227.165091 0 0 227.165091 0 506.414545c0 279.249455 227.165091 506.414545 506.414545 506.414546 279.249455 0 506.414545-227.165091 506.414546-506.414546C1012.829091 227.165091 785.664 0 506.414545 0z" p-id="4038" fill="#bfbfbf"></path></svg>