<?xml version="1.0" standalone="no"?><!DOCTYPE svg PUBLIC "-//W3C//DTD SVG 1.1//EN" "http://www.w3.org/Graphics/SVG/1.1/DTD/svg11.dtd"><svg t="1593481913206" class="icon" viewBox="0 0 1024 1024" version="1.1" xmlns="http://www.w3.org/2000/svg" p-id="2852" xmlns:xlink="http://www.w3.org/1999/xlink" width="32" height="32"><defs><style type="text/css"></style></defs><path d="M429.63968 713.0624c-0.83968 0.91136-1.42336 1.9456-2.30912 2.8416l-124.52352 124.8256c-34.39104 34.46272-90.12736 34.46272-124.5184 0-34.37056-34.45248-34.37056-90.34752 0-124.8256l124.5184-124.83584c0.27136-0.26624 0.6144-0.44544 0.88064-0.73216L410.88 483.13856c-58.81344-15.83616-124.18048-0.77824-170.33728 45.4912l-124.52352 124.8256c-68.77696 68.95104-68.77696 180.74624 0 249.67168 68.76672 68.95104 180.27008 68.95104 249.02144 0l124.5184-124.82048c46.11072-46.24384 61.15328-111.70816 45.4144-170.62912L429.63968 713.0624zM907.19232 111.04256c-68.7616-68.95104-180.2496-68.95104-249.00608 0l-124.5184 124.83584c-45.9776 46.08-61.06112 111.28832-45.56288 170.06592l107.68896-107.69408 0.09216 0.08704c0.03584-0.01536 0.03584-0.0256 0.03584-0.0256l124.52352-124.84096c34.37568-34.46272 90.12736-34.46272 124.52352 0 34.3808 34.47296 34.3808 90.368 0 124.84096l-124.52352 124.83584c-1.44896 1.45408-3.14368 2.48832-4.65408 3.8144l-103.97184 103.94624c58.96704 16.08192 124.58496 1.07008 170.87488-45.34784l124.52864-124.83584C975.9488 291.75808 975.9488 179.97824 907.19232 111.04256zM661.39648 313.86112c-12.94848 0-24.5248 5.5808-32.68096 14.37696l-295.97696 295.97184c-8.7808 8.15616-14.37184 19.73248-14.37184 32.68608 0 24.71424 20.02944 44.74368 44.74368 44.74368 12.4672 0 23.72608-5.13536 31.83616-13.37344l0.13824 0.14848 298.2912-298.29632-0.14336-0.13312c7.97184-8.06912 12.90752-19.15392 12.90752-31.37536C706.14016 333.89568 686.11584 313.86112 661.39648 313.86112z" p-id="2853"></path></svg>