<?xml version="1.0" standalone="no"?><!DOCTYPE svg PUBLIC "-//W3C//DTD SVG 1.1//EN" "http://www.w3.org/Graphics/SVG/1.1/DTD/svg11.dtd"><svg t="1593506680950" class="icon" viewBox="0 0 1024 1024" version="1.1" xmlns="http://www.w3.org/2000/svg" p-id="4526" xmlns:xlink="http://www.w3.org/1999/xlink" width="32" height="32"><defs><style type="text/css"></style></defs><path d="M828.946582 825.845964C748.086973 907.875213 636.409474 957.858604 511.949858 957.858604c-123.202996 0-234.852866-49.956785-316.996724-132.012639C114.089431 745.106082 64.044642 633.605615 64.044642 510.579651c0-124.278491 50.04479-235.805564 130.909515-316.550563 82.142835-81.994456 193.793728-131.98194 316.996724-131.98194 124.486222 0 236.137115 49.987484 316.996724 131.98194C909.809261 274.774087 959.855074 386.30116 959.855074 510.579651 959.855074 633.605615 909.809261 745.106082 828.946582 825.845964L828.946582 825.845964zM792.993742 229.9236c-71.841212-71.783907-170.677241-115.350145-281.043884-115.350145-109.078301 0-207.919447 43.566238-279.792381 115.350145-71.871911 71.753207-116.783797 170.44495-116.783797 280.656051 0 108.932991 44.911886 207.619618 116.783797 279.375895 71.872934 71.78493 170.71408 115.319445 279.792381 115.319445 110.366643 0 209.202673-43.566238 281.043884-115.319445 70.592778-71.788 115.500571-170.443927 115.500571-279.375895C908.526035 400.36855 863.58652 301.676807 792.993742 229.9236L792.993742 229.9236zM691.619914 763.049756l-42.343387 20.485567L579.973114 637.427664l-2.569522-5.13802c0 0 32.07144-14.092973 48.761564-17.942651 15.378246-5.13802 19.262716 7.703449 19.262716 7.703449s42.337247 88.415702 52.613288 110.184495C708.282409 754.063081 691.619914 763.049756 691.619914 763.049756L691.619914 763.049756zM386.178363 595.146699C253.119905 339.689562 372.473223 257.396301 371.996362 253.066693c1.134847 3.01466 11.794627 27.14115 69.365834 148.555407-15.408945 0-15.408945 12.841469-6.42227 51.268664 7.707542 39.742143 61.60201 142.256958 85.99763 174.297698 23.11137 30.751375 41.059138 16.658402 41.059138 16.658402l65.454758 147.389862C627.450429 791.236726 518.372128 850.184279 386.178363 595.146699L386.178363 595.146699zM372.053668 252.973572l-0.057305 0.093121C371.785561 252.52741 371.845936 252.589832 372.053668 252.973572L372.053668 252.973572zM504.247432 372.176464l-42.342364 20.485567-69.335135-146.075937-2.568499-3.852748c0 0 32.067346-14.092973 48.76054-19.230993 15.408945-3.849678 19.258623 7.67582 19.258623 7.67582s42.343387 89.698928 52.614311 111.499443C520.936533 364.474039 504.247432 372.176464 504.247432 372.176464L504.247432 372.176464zM504.247432 372.176464" p-id="4527"></path></svg>