<?xml version="1.0" standalone="no"?><!DOCTYPE svg PUBLIC "-//W3C//DTD SVG 1.1//EN" "http://www.w3.org/Graphics/SVG/1.1/DTD/svg11.dtd"><svg t="1593506728374" class="icon" viewBox="0 0 1024 1024" version="1.1" xmlns="http://www.w3.org/2000/svg" p-id="5985" xmlns:xlink="http://www.w3.org/1999/xlink" width="32" height="32"><defs><style type="text/css"></style></defs><path d="M512 998.4C243.797333 998.4 25.6 780.202667 25.6 512S243.797333 25.6 512 25.6 998.4 243.797333 998.4 512 780.202667 998.4 512 998.4zM512 76.8C272.0256 76.8 76.8 272.0256 76.8 512S272.0256 947.2 512 947.2 947.2 751.9744 947.2 512 751.9744 76.8 512 76.8z" p-id="5986"></path><path d="M785.066667 477.866667 784.878933 426.666667 785.425067 477.866667 244.1728 477.866667 244.1728 426.666667 785.066667 426.666667Z" p-id="5987"></path><path d="M512 807.748267 205.6192 443.921067 346.3168 273.066667 648.533333 273.066667l17.066667 0 17.066667 17.066667 136.618667 152.644267L512 807.748267zM272.247467 443.5456 512 728.251733l238.7968-283.579733L637.474133 324.266667 370.4832 324.266667 272.247467 443.5456z" p-id="5988"></path><path d="M513.8944 805.905067 375.466667 443.3408 512 273.066667l136.533333 171.0592L513.8944 805.905067zM439.313067 448.648533 512 665.6l74.5984-218.043733L512 341.333333 439.313067 448.648533z" p-id="5989"></path></svg>