<?xml version="1.0" standalone="no"?><!DOCTYPE svg PUBLIC "-//W3C//DTD SVG 1.1//EN" "http://www.w3.org/Graphics/SVG/1.1/DTD/svg11.dtd"><svg t="1593506776788" class="icon" viewBox="0 0 1024 1024" version="1.1" xmlns="http://www.w3.org/2000/svg" p-id="6856" xmlns:xlink="http://www.w3.org/1999/xlink" width="32" height="32"><defs><style type="text/css"></style></defs><path d="M512.12 73.672c-240.104 0-435.44 195.336-435.44 435.448 0 240.12 195.336 435.464 435.44 435.464 240.112 0 435.464-195.344 435.464-435.464 0-240.112-195.352-435.448-435.464-435.448z m0 854.904c-231.28 0-419.44-188.168-419.44-419.464 0-231.28 188.16-419.448 419.44-419.448 231.296 0 419.464 188.168 419.464 419.448 0 231.296-188.168 419.464-419.464 419.464z" p-id="6857"></path><path d="M730.832 392.792a2184.16 2184.16 0 0 1-11.184-17.848c-24.696-39.728-39.592-63.696-73.416-63.696H385.44c-26.064 0-37.88 16.688-59.328 46.984-6.984 9.864-14.896 21.048-25 34.16l-59.384 81.64c-7.864 10.472-10.344 22.2-7.48 33.832h-0.088c6.92 26.912 31.328 46.888 60.368 46.888a62.408 62.408 0 0 0 54.4-31.936 62.4 62.4 0 0 0 54.4 31.936 62.4 62.4 0 0 0 54.4-31.936 62.4 62.4 0 0 0 54.4 31.936 62.408 62.408 0 0 0 54.4-31.936 62.424 62.424 0 0 0 54.408 31.936 62.4 62.4 0 0 0 54.392-31.936 62.424 62.424 0 0 0 54.408 31.936c29.048 0 53.448-19.976 60.368-46.888h0.064c2.416-10.976 0.496-22.264-6.008-33.392l-53.328-81.68z m42.728 115.056h-0.16c-6.4 17.968-23.528 30.888-43.672 30.888s-37.28-12.92-43.68-30.888h-21.448c-6.408 17.968-23.528 30.888-43.672 30.888s-37.28-12.92-43.68-30.888h-21.448c-6.408 17.968-23.536 30.888-43.68 30.888s-37.272-12.92-43.672-30.888h-21.448c-6.408 17.968-23.536 30.888-43.68 30.888s-37.272-12.92-43.672-30.888h-21.448c-6.4 17.968-23.536 30.888-43.68 30.888s-37.272-12.92-43.672-30.888h0.168c-3.52-8.408-2.408-16.36 3.576-24.312l59.328-81.56c10.168-13.184 18.184-24.512 25.256-34.504 21.64-30.568 29.296-40.232 46.272-40.232H646.24c23.968 0 35 16.2 59.832 56.144 3.504 5.632 7.232 11.632 11.328 18.08l53.16 81.408c4.912 8.416 5.864 16.792 3 24.976zM654.784 585.856a7.904 7.904 0 0 0-7.848 7.304h-0.16V692.88h-269.28V593.168h-0.16c-0.368-4.088-3.68-7.304-7.848-7.304s-7.488 3.216-7.848 7.304h-0.144V708.88h301.28V593.168h-0.144a7.92 7.92 0 0 0-7.848-7.312z" p-id="6858"></path></svg>