<?xml version="1.0" standalone="no"?><!DOCTYPE svg PUBLIC "-//W3C//DTD SVG 1.1//EN" "http://www.w3.org/Graphics/SVG/1.1/DTD/svg11.dtd"><svg t="1593481843243" class="icon" viewBox="0 0 1024 1024" version="1.1" xmlns="http://www.w3.org/2000/svg" p-id="2115" xmlns:xlink="http://www.w3.org/1999/xlink" width="32" height="32"><defs><style type="text/css"></style></defs><path d="M711.546257 258.094963c5.179214 0 10.268586 0.096989 15.350812 0.339972C700.008646 112.06215 548.816016 0 366.33064 0 164.834393 0 1.529364 136.597312 1.529364 305.106058c0 98.792008 56.130106 186.639569 143.193587 242.380698 1.125073 0.706489 3.345611 2.099047 3.345611 2.099047L112.811517 660.01139l131.880582-67.171541c0 0 4.123565 1.192455 6.203214 1.780514 36.263689 10.097069 75.091972 15.569292 115.435326 15.569292 8.231817 0 16.396251-0.317511 24.511681-0.759577-7.477344-23.186504-11.581511-47.602217-11.581511-72.794863C379.26081 382.808566 528.072614 258.094963 711.546257 258.094963L711.546257 258.094963 711.546257 258.094963zM493.274991 150.422843c28.294253 0 51.194895 22.19007 51.194895 49.612443 0 27.3652-22.900642 49.59917-51.194895 49.59917-28.318756 0-51.214293-22.23397-51.214293-49.59917C442.060698 172.612913 464.956235 150.422843 493.274991 150.422843L493.274991 150.422843 493.274991 150.422843zM239.386289 249.634457c-28.299358 0-51.217356-22.23397-51.217356-49.59917 0-27.422373 22.919019-49.612443 51.217356-49.612443 28.32386 0 51.267382 22.19007 51.267382 49.612443C290.653671 227.400487 267.71015 249.634457 239.386289 249.634457L239.386289 249.634457 239.386289 249.634457zM239.386289 249.634457" p-id="2116"></path><path d="M406.088997 538.446357c0 142.35744 138.015394 257.767242 308.241356 257.767242 34.067653 0 66.855051-4.639139 97.502564-13.193571 1.757033-0.466568 5.227198-1.51405 5.227198-1.51405l111.381184 56.78861-29.763382-93.295282c0 0 1.907111-1.197559 2.833101-1.780514 73.503394-47.095833 120.959617-121.27815 120.959617-204.772435 0-142.343147-137.966389-257.724363-308.140283-257.724363C544.104391 280.721994 406.088997 396.10321 406.088997 538.446357L406.088997 538.446357 406.088997 538.446357zM778.255314 449.664638c0-23.115039 19.351864-41.85332 43.249962-41.85332 23.952207 0 43.30203 18.738281 43.30203 41.85332 0 23.167107-19.349823 41.934995-43.30203 41.934995C797.607178 491.599633 778.255314 472.831745 778.255314 449.664638L778.255314 449.664638 778.255314 449.664638zM563.771725 449.664638c0-23.115039 19.375346-41.85332 43.278548-41.85332 23.9226 0 43.297946 18.738281 43.297946 41.85332 0 23.167107-19.376367 41.934995-43.297946 41.934995C583.14605 491.599633 563.771725 472.831745 563.771725 449.664638L563.771725 449.664638 563.771725 449.664638zM563.771725 449.664638" p-id="2117"></path></svg>