<?xml version="1.0" standalone="no"?><!DOCTYPE svg PUBLIC "-//W3C//DTD SVG 1.1//EN" "http://www.w3.org/Graphics/SVG/1.1/DTD/svg11.dtd"><svg t="1593496604594" class="icon" viewBox="0 0 1024 1024" version="1.1" xmlns="http://www.w3.org/2000/svg" p-id="8391" xmlns:xlink="http://www.w3.org/1999/xlink" width="32" height="32"><defs><style type="text/css"></style></defs><path d="M188.783 194.563c67.981-67.991 155.676-112.102 252.56-126.017 118.413-17.023 236.41 13.172 332.18 84.883C869.31 225.195 931.43 329.956 948.45 448.37c35.117 244.617-135.326 472.08-379.79 507.219-102.508 14.704-207.619-6.783-295.991-60.432-15.098-9.189-19.912-28.882-10.744-43.98 9.255-14.965 28.86-19.91 43.979-10.721 75.681 45.991 165.783 64.37 253.675 51.768 209.5-30.063 355.57-225.056 325.506-434.754-14.572-101.522-67.827-191.273-149.942-252.757-82.092-61.512-183.22-87.33-284.722-72.715-209.717 30.053-355.744 225.09-325.616 434.698 7.899 54.876 26.934 106.162 56.712 152.372 9.54 14.922 5.186 34.788-9.584 44.24-14.855 9.583-34.678 5.295-44.24-9.539-34.746-54.088-56.997-113.907-66.252-177.97-17-118.415 13.15-236.48 84.96-332.269a448.524 448.524 0 0 1 42.381-48.966z" fill="#9c827d" p-id="8392"></path><path d="M332.71 697.664V356.33h-53.542c-13.386 0-20.079-7.426-20.079-22.31 0-11.886 6.694-18.579 20.079-20.078h89.237c10.388 0 15.617 4.462 15.617 13.386v370.336c-1.5 14.884-10.423 22.309-26.772 22.309-16.383-0.002-24.54-7.426-24.54-22.31zM569.189 356.33l-15.616 111.547c14.849-7.425 32.696-11.887 53.542-13.386 62.465 7.46 97.394 49.08 104.853 124.933-4.46 92.235-49.079 139.084-133.856 140.549-62.465-1.465-100.391-23.042-113.777-64.698 0-11.887 5.926-18.579 17.847-20.078 4.462 0 12.619 5.228 24.54 15.617 23.774 17.847 48.313 26.771 73.62 26.771 47.582-2.963 73.622-32.697 78.083-89.237-2.998-55.007-26.771-84.01-71.39-87.007-16.383 0-34.23 3.73-53.541 11.154-7.46 2.998-12.653 4.463-15.618 4.463-11.921 0-17.847-5.194-17.847-15.617 0-4.461 1.465-15.616 4.462-33.464L526.8 327.328c-1.5-8.924 4.46-13.386 17.847-13.386h140.55c13.384 1.5 20.81 8.192 22.308 20.078-1.499 14.884-8.924 22.31-22.309 22.31H569.19z" fill="#9c827d" p-id="8393"></path></svg>