<?xml version="1.0" standalone="no"?><!DOCTYPE svg PUBLIC "-//W3C//DTD SVG 1.1//EN" "http://www.w3.org/Graphics/SVG/1.1/DTD/svg11.dtd"><svg t="1593496535008" class="icon" viewBox="0 0 1024 1024" version="1.1" xmlns="http://www.w3.org/2000/svg" p-id="7577" xmlns:xlink="http://www.w3.org/1999/xlink" width="32" height="32"><defs><style type="text/css"></style></defs><path d="M541.556364 734.487273h-349.090909A110.08 110.08 0 0 1 81.454545 624.64V109.847273A110.08 110.08 0 0 1 191.301818 0h350.254546a109.847273 109.847273 0 0 1 109.847272 109.847273v514.792727a109.847273 109.847273 0 0 1-109.847272 109.847273zM191.301818 46.545455A63.301818 63.301818 0 0 0 128 109.847273v514.792727a63.301818 63.301818 0 0 0 63.301818 63.301818h350.254546a63.301818 63.301818 0 0 0 63.301818-63.301818V109.847273A63.301818 63.301818 0 0 0 541.556364 46.545455z" p-id="7578" fill="#9c827d"></path><path d="M546.909091 158.72H186.88a23.272727 23.272727 0 0 1 0-46.545455H546.909091a23.272727 23.272727 0 0 1 0 46.545455zM546.909091 232.727273H186.88a23.272727 23.272727 0 0 1 0-46.545455H546.909091a23.272727 23.272727 0 0 1 0 46.545455zM321.629091 308.363636H186.88a23.272727 23.272727 0 1 1 0-46.545454h134.749091a23.272727 23.272727 0 0 1 0 46.545454z" p-id="7579" fill="#9c827d"></path><path d="M373.992727 292.538182m86.574546 0l350.254545 0q86.574545 0 86.574546 86.574545l0 514.792728q0 86.574545-86.574546 86.574545l-350.254545 0q-86.574545 0-86.574546-86.574545l0-514.792728q0-86.574545 86.574546-86.574545Z" p-id="7580" fill="#9c827d"></path><path d="M810.821818 1003.752727h-349.090909a110.08 110.08 0 0 1-109.847273-109.847272V379.112727a110.08 110.08 0 0 1 109.847273-109.847272h349.090909a110.08 110.08 0 0 1 109.847273 109.847272v514.792728a110.08 110.08 0 0 1-109.847273 109.847272z m-349.090909-687.941818a63.301818 63.301818 0 0 0-63.301818 63.301818v514.792728a63.301818 63.301818 0 0 0 63.301818 63.301818h349.090909a63.301818 63.301818 0 0 0 63.301818-63.301818V379.112727a63.301818 63.301818 0 0 0-63.301818-63.301818z" p-id="7581" fill="#9c827d"></path><path d="M815.243636 427.985455H456.145455a23.272727 23.272727 0 0 1 0-46.545455h359.098181a23.272727 23.272727 0 0 1 0 46.545455zM815.243636 502.690909H456.145455a23.272727 23.272727 0 0 1 0-46.545454h359.098181a23.272727 23.272727 0 0 1 0 46.545454zM590.894545 577.396364H456.145455a23.272727 23.272727 0 0 1 0-46.545455h134.74909a23.272727 23.272727 0 0 1 0 46.545455z" p-id="7582" fill="#9c827d"></path></svg>