<?xml version="1.0" standalone="no"?><!DOCTYPE svg PUBLIC "-//W3C//DTD SVG 1.1//EN" "http://www.w3.org/Graphics/SVG/1.1/DTD/svg11.dtd"><svg t="1593496658692" class="icon" viewBox="0 0 1024 1024" version="1.1" xmlns="http://www.w3.org/2000/svg" p-id="9590" xmlns:xlink="http://www.w3.org/1999/xlink" width="32" height="32"><defs><style type="text/css"></style></defs><path d="M325.387463 571.300299a57.924776 57.924776 0 1 0 57.924776 57.924776 58.077612 58.077612 0 0 0-57.924776-57.924776z m140.150447-235.825672V605.229851h132.508657a70.457313 70.457313 0 0 1 132.355821 0h58.841791V335.474627z m198.686568 235.825672a58.230448 58.230448 0 1 0 40.96 16.964776 57.160597 57.160597 0 0 0-41.112836-16.964776z m-438.485971-101.635821v135.565373H259.820896a70.457313 70.457313 0 0 1 132.35582 0h49.977314V335.474627h-122.268657s1.069851 3.056716-94.299701 134.189851z m178.359403-107.749254v108.360597H267.462687l69.693134-108.360597z" p-id="9591" fill="#9c827d"></path><path d="M512 0A512 512 0 1 0 1024 512 512.611343 512.611343 0 0 0 512 0z m0 1008.716418A496.716418 496.716418 0 1 1 1008.716418 512 497.327761 497.327761 0 0 1 512 1008.716418z" p-id="9592" fill="#9c827d"></path></svg>