<?xml version="1.0" standalone="no"?><!DOCTYPE svg PUBLIC "-//W3C//DTD SVG 1.1//EN" "http://www.w3.org/Graphics/SVG/1.1/DTD/svg11.dtd"><svg t="1593496487431" class="icon" viewBox="0 0 1024 1024" version="1.1" xmlns="http://www.w3.org/2000/svg" p-id="7377" xmlns:xlink="http://www.w3.org/1999/xlink" width="32" height="32"><defs><style type="text/css"></style></defs><path d="M154.565172 761.536646l471.510626 0 0 56.663919L154.565172 818.200566 154.565172 761.536646 154.565172 761.536646 154.565172 761.536646 154.565172 761.536646zM154.565172 761.536646" p-id="7378" fill="#9c827d"></path><path d="M656.706586 893.564121l-2.491475-3.187071L93.564768 890.377051c-22.323717 0-39.698101-22.34699-39.698101-51.061657L53.866667 169.179798c0-28.713374 17.365333-54.247434 39.698101-54.247434l798.81697 0c22.332768 0 39.696808 22.336646 39.696808 51.070707l0 402.068687 2.478545 3.192242c12.403071 9.576727 24.806141 22.341818 34.737131 38.290101l9.916768 15.954747L979.21099 153.222465C979.212283 98.973737 944.47903 54.30303 902.31402 54.30303L81.156525 54.30303c-42.170182 0-76.902141 44.670707-76.902141 98.919434l0 702.041212c0 54.247434 34.737131 98.918141 76.902141 98.918141l607.79701 0-7.439515-12.767677C671.589495 925.469737 664.147394 909.511111 656.706586 893.564121L656.706586 893.564121 656.706586 893.564121 656.706586 893.564121zM656.706586 893.564121" p-id="7379" fill="#9c827d"></path><path d="M154.565172 648.971636l471.510626 0 0 56.676848L154.565172 705.648485 154.565172 648.971636 154.565172 648.971636 154.565172 648.971636 154.565172 648.971636zM154.565172 648.971636" p-id="7380" fill="#9c827d"></path><path d="M415.320566 513.435152c-25.52501 18.359596-56.895354 27.535515-94.109737 27.535515-41.602586 0-74.435232-14.572606-98.495354-43.720404-24.061414-29.145212-36.092121-69.01398-36.092121-119.602424 0-51.287919 13.239596-93.01204 39.718788-125.173657 26.477899-32.160323 61.361131-48.240485 104.65099-48.240485 27.883313 0 52.225293 4.906667 73.027232 14.713535l0 65.792c-20.238222-14.713535-44.975838-22.071596-74.20897-22.071596-25.187556 0-45.595152 10.230949-61.222788 30.68897-15.628929 20.461899-23.443394 47.43499-23.443394 80.925737 0 34.051879 7.055515 60.608646 21.166545 79.665131 14.109737 19.057778 33.365333 28.586667 57.764202 28.586667 14.504081 0 26.366707-2.801778 35.586586-8.407919L359.662545 407.285657l-52.78901 0 0-55.703273 108.445737 0L415.319273 513.435152z" p-id="7381" fill="#9c827d"></path><path d="M522.753939 209.698909l0 325.598384-55.656727 0 0-325.598384L522.753939 209.698909z" p-id="7382" fill="#9c827d"></path><path d="M809.804929 535.297293l-60.71596 0-19.564606-74.621414-94.952727 0-19.225859 74.621414-60.378505 0 95.627636-325.598384 65.437737 0L809.804929 535.297293zM716.370101 407.076202l-29.683071-112.876606c-1.912242-7.14602-3.260768-16.606384-4.048162-28.377212l-1.517899 0c-0.673616 9.531475-2.191515 18.708687-4.552404 27.536808l-29.852444 113.71701L716.370101 407.076202z" p-id="7383" fill="#9c827d"></path><path d="M842.662141 602.837333c-99.263354 0-177.084768 82.172121-177.084768 187.028687 0 102.017293 80.500364 187.035152 177.084768 187.035152 99.278869-0.010343 177.083475-82.199273 177.083475-187.045495C1019.745616 685.009455 939.246545 602.837333 842.662141 602.837333L842.662141 602.837333 842.662141 602.837333 842.662141 602.837333zM839.97802 903.206788c-8.049778 8.503596-24.144162 8.503596-34.871596 0l-75.124364-79.336727c-8.049778-8.503596-8.049778-25.513374 0-34.00404 8.048485-8.504889 24.142869-8.504889 34.876768 0l59.022222 62.345051 115.374545-119.020606c8.048485-8.503596 24.144162-8.503596 34.876768 0 8.049778 8.508768 8.049778 25.509495 0 34.018263L839.97802 903.206788 839.97802 903.206788 839.97802 903.206788 839.97802 903.206788zM839.97802 903.206788" p-id="7384" fill="#9c827d"></path></svg>