<?xml version="1.0" standalone="no"?><!DOCTYPE svg PUBLIC "-//W3C//DTD SVG 1.1//EN" "http://www.w3.org/Graphics/SVG/1.1/DTD/svg11.dtd"><svg t="1593496749716" class="icon" viewBox="0 0 1024 1024" version="1.1" xmlns="http://www.w3.org/2000/svg" p-id="11195" xmlns:xlink="http://www.w3.org/1999/xlink" width="32" height="32"><defs><style type="text/css"></style></defs><path d="M512 1024C230.4 1024 0 793.6 0 512S230.4 0 512 0c281.6 0 512 230.4 512 512S793.6 1024 512 1024L512 1024zM747.52 332.8l-166.4 0 0 56.32 43.52 0-97.28 220.16-122.88-220.16 40.96 0L445.44 332.8 248.32 332.8l0 56.32 43.52 0 179.2 332.8 2.56 0c5.12 15.36 20.48 28.16 38.4 28.16 17.92 0 33.28-12.8 38.4-28.16l2.56 0 153.6-332.8 40.96 0L747.52 332.8 747.52 332.8zM747.52 332.8" p-id="11196" fill="#9c827d"></path></svg>