<?xml version="1.0" standalone="no"?><!DOCTYPE svg PUBLIC "-//W3C//DTD SVG 1.1//EN" "http://www.w3.org/Graphics/SVG/1.1/DTD/svg11.dtd"><svg t="1594879026540" class="icon" viewBox="0 0 1024 1024" version="1.1" xmlns="http://www.w3.org/2000/svg" p-id="1984" xmlns:xlink="http://www.w3.org/1999/xlink" width="16" height="16"><defs><style type="text/css"></style></defs><path d="M848.457143 359.716571c-21.942857 0-43.885714 14.628571-43.885714 36.571429v512c0 21.942857-14.628571 36.571429-36.571429 36.571429h-512c-21.942857 0-36.571429-14.628571-36.571429-36.571429v-519.314286c0-21.942857-14.628571-36.571429-36.571428-36.571428s-36.571429 21.942857-36.571429 36.571428v519.314286c0 58.514286 43.885714 109.714286 109.714286 109.714286h519.314286c58.514286 0 117.028571-51.2 117.028571-109.714286v-512c-7.314286-21.942857-21.942857-36.571429-43.885714-36.571429z m-416.914286 438.857143v-402.285714c0-21.942857-14.628571-36.571429-36.571428-36.571429-14.628571 0-29.257143 14.628571-29.257143 36.571429v402.285714c0 14.628571 14.628571 36.571429 36.571428 36.571429 14.628571 0 29.257143-21.942857 29.257143-36.571429z m226.742857 0v-402.285714c0-21.942857-14.628571-36.571429-36.571428-36.571429s-36.571429 14.628571-36.571429 36.571429v402.285714c0 14.628571 14.628571 36.571429 36.571429 36.571429s36.571429-21.942857 36.571428-36.571429z m329.142857-585.142857H804.571429v-73.142857c0-65.828571-43.885714-109.714286-109.714286-109.714286h-365.714286c-65.828571 0-109.714286 43.885714-109.714286 109.714286v73.142857H36.571429c-21.942857 0-36.571429 14.628571-36.571429 36.571429s14.628571 36.571429 36.571429 36.571428h950.857142c21.942857-7.314286 36.571429-21.942857 36.571429-36.571428s-14.628571-36.571429-36.571429-36.571429z m-256 0H285.257143v-73.142857c0-21.942857 21.942857-36.571429 43.885714-36.571429h373.028572c14.628571 0 29.257143 14.628571 29.257142 36.571429v73.142857z" p-id="1985"></path></svg>