<?xml version="1.0" standalone="no"?><!DOCTYPE svg PUBLIC "-//W3C//DTD SVG 1.1//EN" "http://www.w3.org/Graphics/SVG/1.1/DTD/svg11.dtd"><svg t="1593947015659" class="icon" viewBox="0 0 1024 1024" version="1.1" xmlns="http://www.w3.org/2000/svg" p-id="2063" xmlns:xlink="http://www.w3.org/1999/xlink" width="16" height="16"><defs><style type="text/css"></style></defs><path d="M702.29866666 121.58470834c-72.47025 0-139.6395 36.444375-184.2795 96.429375-44.15175-59.985-111.80925-96.429375-184.2795-96.429375-130.537125 0-236.592 116.13375-236.592 258.633 0 84.9555 37.909125 144.9405 68.634 192.9285 88.756875 139.6395 312.41025 312.863625 322.000875 320.08275a48.371625 48.371625 0 0 0 60.438375 0c9.6255-7.219125 232.75575-180.9315 322.03575-320.08275 30.69-47.988 68.599125-107.973 68.599125-192.9285 0-142.534125-106.02-258.633-236.557125-258.633z m106.9965 450.131625c-82.060875 115.15725-255.77325 246.636-264.42225 252.878625-8.16075 6.242625-17.751375 9.590625-26.85375 9.590625-9.590625 0-18.727875-2.85975-26.85375-9.590625-8.683875-6.242625-179.013375-139.15125-264.457125-257.691375-27.342-43.17525-71.0055-96.9525-71.0055-172.77075 0-127.6425 71.0055-217.375875 187.6275-217.375875 64.79775 0 135.315 61.903125 174.688875 115.6455 39.82725-53.7075 109.85625-115.6455 174.654-115.6455 117.11025 0 192.9285 89.733375 192.9285 217.375875 0 75.81825-48.47625 134.861625-76.3065 177.5835z" p-id="2064" fill="#8a8a8a"></path></svg>