<?xml version="1.0" standalone="no"?><!DOCTYPE svg PUBLIC "-//W3C//DTD SVG 1.1//EN" "http://www.w3.org/Graphics/SVG/1.1/DTD/svg11.dtd"><svg t="1591668338619" class="icon" viewBox="0 0 1024 1024" version="1.1" xmlns="http://www.w3.org/2000/svg" p-id="3903" xmlns:xlink="http://www.w3.org/1999/xlink" width="200" height="200"><defs><style type="text/css"></style></defs><path d="M824.353984 120.826879 199.057615 120.826879c-74.601068 0-135.076418 60.47535-135.076418 135.076418l0 376.608404c0 74.601068 60.47535 135.076418 135.076418 135.076418l56.805774 0 0 191.882192 346.296027-191.882192 222.194568 0c74.601068 0 135.076418-60.47535 135.076418-135.076418L959.430402 255.903298C959.430402 181.302229 898.955052 120.826879 824.353984 120.826879zM895.469672 633.019261c0 38.996153-31.611975 70.608128-70.608128 70.608128l-249.195525 0L319.824119 848.945055 319.824119 703.627389 198.550055 703.627389c-38.996153 0-70.608128-31.611975-70.608128-70.608128L127.941927 255.394714c0-38.996153 31.611975-70.608128 70.608128-70.608128l626.311489 0c38.996153 0 70.608128 31.611975 70.608128 70.608128L895.469672 633.019261z" p-id="3904"></path><path d="M319.824119 447.784466m-63.960731 0a62.504 62.504 0 1 0 127.921461 0 62.504 62.504 0 1 0-127.921461 0Z" p-id="3905"></path><path d="M511.706311 447.784466m-63.960731 0a62.504 62.504 0 1 0 127.921461 0 62.504 62.504 0 1 0-127.921461 0Z" p-id="3906"></path><path d="M703.58748 447.784466m-63.960731 0a62.504 62.504 0 1 0 127.921461 0 62.504 62.504 0 1 0-127.921461 0Z" p-id="3907"></path></svg>