<?xml version="1.0" standalone="no"?><!DOCTYPE svg PUBLIC "-//W3C//DTD SVG 1.1//EN" "http://www.w3.org/Graphics/SVG/1.1/DTD/svg11.dtd"><svg t="1593584685666" class="icon" viewBox="0 0 1024 1024" version="1.1" xmlns="http://www.w3.org/2000/svg" p-id="2229" width="22" height="22" xmlns:xlink="http://www.w3.org/1999/xlink"><defs><style type="text/css"></style></defs><path d="M911.936 782.4c-37.12-0.128-42.368-88.64-61.056-83.648-11.328 3.008 0.96 99.648-60.992 125.44-31.744 13.248 16.32 12.672 40.704 41.792 31.488 37.696 61.12 126.656-81.344 146.304s-194.176-67.264-244.096-62.656c-0.384 0-0.768-0.192-1.216-0.256-46.4 7.936-100.16 79.872-230.464 61.824-141.504-19.648-112.064-108.288-80.768-145.856 24.192-28.992 71.936-28.48 40.384-41.664-61.504-25.664-49.344-121.92-60.544-124.992-18.56-4.928-23.808 83.264-60.608 83.392-36.8 0.064-47.808-74.432-40.384-145.856 7.424-71.36 125.248-132.032 100.992-187.52C151.168 399.936 192.512 397.248 192.64 386.112c3.84-296.896 208.768-370.176 297.344-374.976 27.456-2.816 45.952 0 45.952 0s0 0.256 0 0.768c95.296 12.608 290.688 74.88 294.592 373.312 0.128 11.2 41.728 13.888 20.288 62.656-24.448 55.68 94.208 116.48 101.696 188.16C960.064 707.712 948.928 782.464 911.936 782.4z" p-id="2230"></path></svg>