<?xml version="1.0" standalone="no"?><!DOCTYPE svg PUBLIC "-//W3C//DTD SVG 1.1//EN" "http://www.w3.org/Graphics/SVG/1.1/DTD/svg11.dtd"><svg t="1593584719145" class="icon" viewBox="0 0 1024 1024" version="1.1" xmlns="http://www.w3.org/2000/svg" p-id="3120" xmlns:xlink="http://www.w3.org/1999/xlink" width="22" height="22"><defs><style type="text/css"></style></defs><path d="M749.431597 523.954263c-38.386262-7.444553-19.729344-28.103058-19.729344-28.103058s37.561477-61.910025-7.433296-106.914008c-55.758931-55.743582-191.256952 7.092535-191.256952 7.092535-51.743478 16.057721-38.034245-7.327896-30.714536-47.131437 0-46.891983-16.063861-126.257565-153.919579-79.380932-137.723711 47.131437-255.969812 212.265428-255.969812 212.265428C8.179286 591.510892 19.066241 676.320463 19.066241 676.320463 39.60502 863.541495 238.542908 914.932955 393.274992 927.09802c162.789597 12.768815 382.493437-56.110949 449.120904-197.617823C909.012106 587.737962 787.948843 531.635199 749.431597 523.954263L749.431597 523.954263zM405.327492 874.299513c-161.606655 7.54893-292.247041-73.477478-292.247041-181.323719 0-107.953687 130.640386-194.534602 292.247041-201.982224 161.714102-7.444553 292.608268 59.179844 292.608268 166.917614C697.93576 765.740028 567.04057 866.959338 405.327492 874.299513L405.327492 874.299513zM373.086184 562.105165C210.544227 581.12945 229.327012 733.372853 229.327012 733.372853s-1.663896 48.203862 43.578518 72.758094c95.107101 51.513234 193.032388 20.323884 242.517429-43.561122C564.919257 698.661284 535.863501 543.211862 373.086184 562.105165L373.086184 562.105165zM332.091514 775.783779c-30.353308 3.551896-54.800094-13.936407-54.800094-39.333844 0-25.27464 21.721721-51.743478 52.084239-54.91675 34.860972-3.313465 57.542554 16.768919 57.542554 42.162262C386.918213 748.97418 362.322026 772.34854 332.091514 775.783779L332.091514 775.783779zM427.897533 694.161806c-10.273994 7.680936-22.929222 6.620791-28.351722-2.593058-5.664-8.986675-3.540639-23.388686 6.856152-30.957059 12.048407-8.962116 24.569582-6.387477 29.994128 2.611477C441.84008 672.421666 437.947424 686.24244 427.897533 694.161806L427.897533 694.161806zM828.579215 458.037994c13.100366 0 24.234961-9.685593 26.104541-22.322401 0.236384-0.947582 0.352017-1.765203 0.352017-2.834558 19.85214-178.470741-146.247852-147.756205-146.247852-147.756205-14.746866 0-26.568099 11.926634-26.568099 26.806529 0 14.647605 11.821233 26.574239 26.568099 26.574239 119.303176-26.331715 92.983741 92.968391 92.983741 92.968391C801.766546 446.225971 813.791417 458.037994 828.579215 458.037994L828.579215 458.037994zM809.217239 140.803863c-57.419757-13.452383-116.486014 0.997724-133.030829 4.167926-1.281179 0.122797-2.476401 2.75781-3.656273 2.996241-0.576121 0.116657-0.929162 1.422396-0.929162 1.422396-16.308431 4.616134-28.244274 20.073174-28.244274 37.917588 0 21.262256 17.240663 38.930661 38.739303 38.930661 0 0 20.912285-2.715855 35.085076-8.260128 14.053064-5.658883 133.004223-4.167926 192.084807 95.04161 32.235169 72.405053 14.172791 120.889301 11.917424 128.677685 0 0-7.662517 18.826787-7.662517 37.343513 0 21.381983 17.246803 29.106922 38.604226 29.106922 17.856693 0 32.856315-7.91118 37.236066-38.341237l0.236384 0C1053.015847 256.808924 911.97867 164.778904 809.217239 140.803863L809.217239 140.803863z" p-id="3121"></path></svg>