<?xml version="1.0" standalone="no"?><!DOCTYPE svg PUBLIC "-//W3C//DTD SVG 1.1//EN" "http://www.w3.org/Graphics/SVG/1.1/DTD/svg11.dtd"><svg t="1591668369218" class="icon" viewBox="0 0 1024 1024" version="1.1" xmlns="http://www.w3.org/2000/svg" p-id="4643" xmlns:xlink="http://www.w3.org/1999/xlink" width="200" height="200"><defs><style type="text/css"></style></defs><path d="M998.4 343.04c-15.36 0-25.6 10.24-25.6 25.6V921.6c0 30.72-20.48 51.2-51.2 51.2H102.4c-30.72 0-51.2-20.48-51.2-51.2V102.4c0-30.72 20.48-51.2 51.2-51.2h552.96c15.36 0 25.6-10.24 25.6-25.6s-10.24-25.6-25.6-25.6H102.4C46.08 0 0 46.08 0 102.4v819.2c0 56.32 46.08 102.4 102.4 102.4h819.2c56.32 0 102.4-46.08 102.4-102.4V368.64c0-15.36-10.24-25.6-25.6-25.6z" p-id="4644"></path><path d="M332.8 506.88l-35.84 35.84-35.84 153.6v25.6c5.12 15.36 10.24 25.6 20.48 30.72 10.24 5.12 15.36 10.24 25.6 10.24h10.24l153.6-35.84 506.88-506.88c20.48-20.48 20.48-51.2 0-71.68L870.4 40.96c-20.48-20.48-51.2-20.48-71.68 0L332.8 506.88z m-20.48 204.8l30.72-122.88 97.28 97.28-128 25.6zM839.68 71.68l107.52 107.52-71.68 71.68L768 143.36l71.68-71.68z m-107.52 107.52l107.52 107.52-363.52 363.52-107.52-107.52 363.52-363.52z" p-id="4645"></path></svg>